<svg version="1.1" viewBox="0.0 0.0 768.0 768.0" fill="none" stroke="none" stroke-linecap="square" stroke-miterlimit="10" xmlns:xlink="http://www.w3.org/1999/xlink" xmlns="http://www.w3.org/2000/svg"><clipPath id="p.0"><path d="m0 0l768.0 0l0 768.0l-768.0 0l0 -768.0z" clip-rule="nonzero"/></clipPath><g clip-path="url(#p.0)"><path fill="#000000" fill-opacity="0.0" d="m0 0l768.0 0l0 768.0l-768.0 0z" fill-rule="evenodd"/><path fill="#000000" d="m13.16063 414.2301c0.10743618 21.634033 1.5058613 94.75455 68.74121 113.705444c67.23534 18.950928 265.40613 19.12793 334.67084 0c69.26474 -19.1279 76.624695 -93.063385 80.9176 -114.767426c4.2929077 -21.70401 14.212067 -12.950623 -55.160126 -15.456757c-69.37216 -2.506134 -289.54468 -2.3330994 -361.07294 0.42004395c-71.52826 2.7531128 -68.204025 -5.535309 -68.09659 16.098694z" fill-rule="evenodd"/><path stroke="#595959" stroke-width="1.0" stroke-linejoin="round" stroke-linecap="butt" d="m13.16063 414.2301c0.10743618 21.634033 1.5058613 94.75455 68.74121 113.705444c67.23534 18.950928 265.40613 19.12793 334.67084 0c69.26474 -19.1279 76.624695 -93.063385 80.9176 -114.767426c4.2929077 -21.70401 14.212067 -12.950623 -55.160126 -15.456757c-69.37216 -2.506134 -289.54468 -2.3330994 -361.07294 0.42004395c-71.52826 2.7531128 -68.204025 -5.535309 -68.09659 16.098694z" fill-rule="evenodd"/><path fill="#000000" d="m497.5557 455.90295c0.41461182 -5.829712 6.462097 -39.305664 14.175446 -48.609406c7.713318 -9.303741 -0.77905273 12.021057 32.104614 -7.213043c32.883667 -19.2341 131.1211 -93.343414 165.19733 -108.19162c34.076233 -14.848175 65.51593 -1.163147 39.26013 19.102417c-26.255737 20.265533 -156.953 80.61078 -196.79462 102.490875c-39.841583 21.880096 -33.264526 21.719513 -42.254974 28.789642c-8.990509 7.0701294 -12.102509 19.460846 -11.687927 13.631134z" fill-rule="evenodd"/><path stroke="#595959" stroke-width="1.0" stroke-linejoin="round" stroke-linecap="butt" d="m497.5557 455.90295c0.41461182 -5.829712 6.462097 -39.305664 14.175446 -48.609406c7.713318 -9.303741 -0.77905273 12.021057 32.104614 -7.213043c32.883667 -19.2341 131.1211 -93.343414 165.19733 -108.19162c34.076233 -14.848175 65.51593 -1.163147 39.26013 19.102417c-26.255737 20.265533 -156.953 80.61078 -196.79462 102.490875c-39.841583 21.880096 -33.264526 21.719513 -42.254974 28.789642c-8.990509 7.0701294 -12.102509 19.460846 -11.687927 13.631134z" fill-rule="evenodd"/><path fill="#000000" fill-opacity="0.0" d="m152.46925 378.64594c7.0541534 -12.710236 42.51535 -49.16098 42.324844 -76.26135c-0.19052124 -27.100342 -43.46788 -58.279556 -43.46788 -86.34085c0 -28.06128 36.22322 -68.3557 43.46788 -82.02684" fill-rule="evenodd"/><path stroke="#e06666" stroke-width="12.0" stroke-linejoin="round" stroke-linecap="butt" d="m152.46925 378.64594c7.0541534 -12.710236 42.51535 -49.16098 42.324844 -76.26135c-0.19052124 -27.100342 -43.46788 -58.279556 -43.46788 -86.34085c0 -28.06128 36.22322 -68.3557 43.46788 -82.02684" fill-rule="evenodd"/><path fill="#000000" fill-opacity="0.0" d="m193.66994 369.5538c-7.054138 -12.710236 -42.515335 -49.16098 -42.32483 -76.26135c0.19050598 -27.100372 43.467865 -58.27957 43.467865 -86.34085c0 -28.061295 -36.22322 -68.35571 -43.467865 -82.026855" fill-rule="evenodd"/><path stroke="#e06666" stroke-width="12.0" stroke-linejoin="round" stroke-linecap="butt" d="m193.66994 369.5538c-7.054138 -12.710236 -42.515335 -49.16098 -42.32483 -76.26135c0.19050598 -27.100372 43.467865 -58.27957 43.467865 -86.34085c0 -28.061295 -36.22322 -68.35571 -43.467865 -82.026855" fill-rule="evenodd"/><path fill="#000000" fill-opacity="0.0" d="m248.09344 378.64255c7.054138 -12.710205 42.51535 -49.16095 42.32483 -76.26132c-0.19049072 -27.100372 -43.467865 -58.27957 -43.467865 -86.340866c0 -28.06128 36.223236 -68.35571 43.467865 -82.02684" fill-rule="evenodd"/><path stroke="#6aa84f" stroke-width="12.0" stroke-linejoin="round" stroke-linecap="butt" d="m248.09344 378.64255c7.054138 -12.710205 42.51535 -49.16095 42.32483 -76.26132c-0.19049072 -27.100372 -43.467865 -58.27957 -43.467865 -86.340866c0 -28.06128 36.223236 -68.35571 43.467865 -82.02684" fill-rule="evenodd"/><path fill="#000000" fill-opacity="0.0" d="m289.29413 369.5504c-7.054138 -12.710236 -42.515335 -49.16098 -42.32483 -76.26135c0.19050598 -27.100342 43.467865 -58.279556 43.467865 -86.34085c0 -28.06128 -36.22322 -68.3557 -43.467865 -82.02684" fill-rule="evenodd"/><path stroke="#6aa84f" stroke-width="12.0" stroke-linejoin="round" stroke-linecap="butt" d="m289.29413 369.5504c-7.054138 -12.710236 -42.515335 -49.16098 -42.32483 -76.26135c0.19050598 -27.100342 43.467865 -58.279556 43.467865 -86.34085c0 -28.06128 -36.22322 -68.3557 -43.467865 -82.02684" fill-rule="evenodd"/><path fill="#000000" fill-opacity="0.0" d="m345.37317 378.64255c7.054138 -12.710205 42.51535 -49.16095 42.32483 -76.26132c-0.19049072 -27.100372 -43.467865 -58.27957 -43.467865 -86.340866c0 -28.06128 36.223236 -68.35571 43.467865 -82.02684" fill-rule="evenodd"/><path stroke="#6fa8dc" stroke-width="12.0" stroke-linejoin="round" stroke-linecap="butt" d="m345.37317 378.64255c7.054138 -12.710205 42.51535 -49.16095 42.32483 -76.26132c-0.19049072 -27.100372 -43.467865 -58.27957 -43.467865 -86.340866c0 -28.06128 36.223236 -68.35571 43.467865 -82.02684" fill-rule="evenodd"/><path fill="#000000" fill-opacity="0.0" d="m386.57385 369.5504c-7.054138 -12.710236 -42.51532 -49.16098 -42.32483 -76.26135c0.19052124 -27.100342 43.467865 -58.279556 43.467865 -86.34085c0 -28.06128 -36.223206 -68.3557 -43.467865 -82.02684" fill-rule="evenodd"/><path stroke="#6fa8dc" stroke-width="12.0" stroke-linejoin="round" stroke-linecap="butt" d="m386.57385 369.5504c-7.054138 -12.710236 -42.51532 -49.16098 -42.32483 -76.26135c0.19052124 -27.100342 43.467865 -58.279556 43.467865 -86.34085c0 -28.06128 -36.223206 -68.3557 -43.467865 -82.02684" fill-rule="evenodd"/></g></svg>